# xmcd
#
# Track frame offsets: 
#        150
#        22300
#        60425
#        79995
#        99170
#        121380
#        150240
#        157315
#        193500
#        220350
#        241165
#        263050
#        287360
#        302710
#
# Disc length: 4350 seconds
#
# Revision: 0
# Processed by: cddbd v1.5.2PL0 Copyright (c) Steve Scherf et al.
# Submitted via: ExactAudioCopy v1.3
#
DISCID=b810fc0e
DTITLE=BMP Records - Blues at Mt Baker Theatre
DYEAR=2018
DGENRE=Blues
TTITLE0=Eddie Cleanhead Vinson - They Call Me Mr Cleanhead
TTITLE1=Eddie Cleanhead Vinson - Hold It Right There
TTITLE2=Eddie Cleanhead Vinson - Cherry Red
TTITLE3=Eddie Cleanhead Vinson - Railroad Porter
TTITLE4=Eddie Cleanhead Vinson - Take The A Train
TTITLE5=Eddie Cleanhead Vinson - Took The Front Door In
TTITLE6=Joe Houston - Jammin' Band Intro - Intermission
TTITLE7=Joe Houston - I'm A Man
TTITLE8=Big Joe Turner - How Many More Years
TTITLE9=Big Joe Turner - Oh Boy
TTITLE10=Big Joe Turner - Call The Plumber
TTITLE11=Big Joe Turner - Sweet Little Angel
TTITLE12=Big Joe Turner - Kansas City
TTITLE13=Corrina Corrina
EXTD=
EXTT0=
EXTT1=
EXTT2=
EXTT3=
EXTT4=
EXTT5=
EXTT6=
EXTT7=
EXTT8=
EXTT9=
EXTT10=
EXTT11=
EXTT12=
EXTT13=
PLAYORDER=
